<mxfile host="app.diagrams.net" agent="Mozilla/5.0 (Macintosh; Intel Mac OS X 10_15_7) AppleWebKit/537.36 (KHTML, like Gecko) Chrome/134.0.0.0 Safari/537.36" version="26.1.1">
  <diagram id="iTUQmZekEzfw-EaT3AT_" name="第 1 页">
    <mxGraphModel dx="1046" dy="700" grid="1" gridSize="10" guides="1" tooltips="1" connect="1" arrows="1" fold="1" page="1" pageScale="1" pageWidth="850" pageHeight="1100" math="0" shadow="0">
      <root>
        <mxCell id="0" />
        <mxCell id="1" parent="0" />
        <mxCell id="I-Z8jvj-XsjcHyUn7FgB-4" value="" style="rounded=0;whiteSpace=wrap;html=1;" parent="1" vertex="1">
          <mxGeometry x="360" y="880" width="220" height="210" as="geometry" />
        </mxCell>
        <mxCell id="I-Z8jvj-XsjcHyUn7FgB-1" value="&lt;b&gt;frontend&lt;/b&gt; static files" style="rounded=0;whiteSpace=wrap;html=1;" parent="1" vertex="1">
          <mxGeometry x="400" y="970" width="140" height="60" as="geometry" />
        </mxCell>
        <mxCell id="I-Z8jvj-XsjcHyUn7FgB-2" value="middle layer for proxy" style="rounded=0;whiteSpace=wrap;html=1;" parent="1" vertex="1">
          <mxGeometry x="380" y="910" width="180" height="30" as="geometry" />
        </mxCell>
        <mxCell id="I-Z8jvj-XsjcHyUn7FgB-3" value="" style="endArrow=classic;html=1;rounded=0;entryX=0.5;entryY=1;entryDx=0;entryDy=0;exitX=0.5;exitY=0;exitDx=0;exitDy=0;" parent="1" source="I-Z8jvj-XsjcHyUn7FgB-1" target="I-Z8jvj-XsjcHyUn7FgB-2" edge="1">
          <mxGeometry width="50" height="50" relative="1" as="geometry">
            <mxPoint x="460" y="970" as="sourcePoint" />
            <mxPoint x="510" y="920" as="targetPoint" />
          </mxGeometry>
        </mxCell>
        <mxCell id="I-Z8jvj-XsjcHyUn7FgB-27" style="edgeStyle=orthogonalEdgeStyle;rounded=0;orthogonalLoop=1;jettySize=auto;html=1;entryX=0.5;entryY=1;entryDx=0;entryDy=0;" parent="1" source="I-Z8jvj-XsjcHyUn7FgB-7" target="I-Z8jvj-XsjcHyUn7FgB-26" edge="1">
          <mxGeometry relative="1" as="geometry" />
        </mxCell>
        <mxCell id="I-Z8jvj-XsjcHyUn7FgB-7" value="&lt;font style=&quot;font-size: 16px;&quot;&gt;Catalog Service&lt;/font&gt;&lt;div&gt;&lt;font style=&quot;font-size: 20px;&quot;&gt;&lt;br&gt;&lt;/font&gt;&lt;/div&gt;&lt;div&gt;&lt;font style=&quot;font-size: 20px;&quot;&gt;&lt;span style=&quot;font-family: &amp;quot;Helvetica Neue&amp;quot;; font-size: 13px; text-align: start;&quot;&gt;/books&lt;/span&gt;&lt;/font&gt;&lt;/div&gt;&lt;div&gt;&lt;font style=&quot;font-size: 20px;&quot;&gt;&lt;p style=&quot;margin: 0px; font-variant-numeric: normal; font-variant-east-asian: normal; font-variant-alternates: normal; font-size-adjust: none; font-kerning: auto; font-optical-sizing: auto; font-feature-settings: normal; font-variation-settings: normal; font-variant-position: normal; font-variant-emoji: normal; font-stretch: normal; font-size: 13px; line-height: normal; font-family: &amp;quot;Helvetica Neue&amp;quot;; text-align: start;&quot; class=&quot;p1&quot;&gt;/books/category/:category&lt;/p&gt;&lt;/font&gt;&lt;/div&gt;" style="rounded=0;whiteSpace=wrap;html=1;" parent="1" vertex="1">
          <mxGeometry x="40" y="580" width="300" height="190" as="geometry" />
        </mxCell>
        <mxCell id="I-Z8jvj-XsjcHyUn7FgB-12" value="Express (built on&amp;nbsp;Node.js)&amp;nbsp;" style="rounded=0;whiteSpace=wrap;html=1;" parent="1" vertex="1">
          <mxGeometry x="40" y="740" width="300" height="30" as="geometry" />
        </mxCell>
        <mxCell id="I-Z8jvj-XsjcHyUn7FgB-16" value="&lt;span style=&quot;text-wrap-mode: nowrap;&quot;&gt;Nextjs (built on Node.js and React)&amp;nbsp;&amp;nbsp;&lt;/span&gt;" style="rounded=0;whiteSpace=wrap;html=1;" parent="1" vertex="1">
          <mxGeometry x="360" y="1060" width="220" height="30" as="geometry" />
        </mxCell>
        <mxCell id="I-Z8jvj-XsjcHyUn7FgB-17" style="edgeStyle=orthogonalEdgeStyle;rounded=0;orthogonalLoop=1;jettySize=auto;html=1;entryX=0.461;entryY=0.993;entryDx=0;entryDy=0;entryPerimeter=0;exitX=0.25;exitY=0;exitDx=0;exitDy=0;" parent="1" source="I-Z8jvj-XsjcHyUn7FgB-2" target="I-Z8jvj-XsjcHyUn7FgB-7" edge="1">
          <mxGeometry relative="1" as="geometry" />
        </mxCell>
        <mxCell id="I-Z8jvj-XsjcHyUn7FgB-18" value="&lt;font style=&quot;font-size: 16px;&quot;&gt;Cart Service&lt;/font&gt;" style="rounded=0;whiteSpace=wrap;html=1;" parent="1" vertex="1">
          <mxGeometry x="380" y="390" width="450" height="420" as="geometry" />
        </mxCell>
        <mxCell id="I-Z8jvj-XsjcHyUn7FgB-22" value="" style="rounded=0;whiteSpace=wrap;html=1;" parent="1" vertex="1">
          <mxGeometry x="390" y="410" width="160" height="340" as="geometry" />
        </mxCell>
        <mxCell id="I-Z8jvj-XsjcHyUn7FgB-23" value="" style="rounded=0;whiteSpace=wrap;html=1;" parent="1" vertex="1">
          <mxGeometry x="660" y="410" width="160" height="340" as="geometry" />
        </mxCell>
        <mxCell id="I-Z8jvj-XsjcHyUn7FgB-24" value="User" style="rounded=0;whiteSpace=wrap;html=1;" parent="1" vertex="1">
          <mxGeometry x="390" y="410" width="160" height="30" as="geometry" />
        </mxCell>
        <mxCell id="I-Z8jvj-XsjcHyUn7FgB-25" value="Cart" style="rounded=0;whiteSpace=wrap;html=1;" parent="1" vertex="1">
          <mxGeometry x="660" y="410" width="160" height="30" as="geometry" />
        </mxCell>
        <mxCell id="I-Z8jvj-XsjcHyUn7FgB-26" value="Postgres Database" style="rounded=0;whiteSpace=wrap;html=1;" parent="1" vertex="1">
          <mxGeometry x="65" y="390" width="250" height="120" as="geometry" />
        </mxCell>
        <mxCell id="I-Z8jvj-XsjcHyUn7FgB-36" style="edgeStyle=orthogonalEdgeStyle;rounded=0;orthogonalLoop=1;jettySize=auto;html=1;" parent="1" source="I-Z8jvj-XsjcHyUn7FgB-28" target="I-Z8jvj-XsjcHyUn7FgB-26" edge="1">
          <mxGeometry relative="1" as="geometry" />
        </mxCell>
        <mxCell id="I-Z8jvj-XsjcHyUn7FgB-28" value="UserEntity" style="rounded=0;whiteSpace=wrap;html=1;" parent="1" vertex="1">
          <mxGeometry x="400" y="490" width="140" height="30" as="geometry" />
        </mxCell>
        <mxCell id="I-Z8jvj-XsjcHyUn7FgB-34" style="edgeStyle=orthogonalEdgeStyle;rounded=0;orthogonalLoop=1;jettySize=auto;html=1;entryX=0.5;entryY=1;entryDx=0;entryDy=0;" parent="1" source="I-Z8jvj-XsjcHyUn7FgB-29" target="I-Z8jvj-XsjcHyUn7FgB-28" edge="1">
          <mxGeometry relative="1" as="geometry" />
        </mxCell>
        <mxCell id="I-Z8jvj-XsjcHyUn7FgB-29" value="UserService" style="rounded=0;whiteSpace=wrap;html=1;" parent="1" vertex="1">
          <mxGeometry x="400" y="550" width="140" height="30" as="geometry" />
        </mxCell>
        <mxCell id="I-Z8jvj-XsjcHyUn7FgB-33" style="edgeStyle=orthogonalEdgeStyle;rounded=0;orthogonalLoop=1;jettySize=auto;html=1;entryX=0.5;entryY=1;entryDx=0;entryDy=0;" parent="1" source="I-Z8jvj-XsjcHyUn7FgB-30" target="I-Z8jvj-XsjcHyUn7FgB-29" edge="1">
          <mxGeometry relative="1" as="geometry" />
        </mxCell>
        <mxCell id="I-Z8jvj-XsjcHyUn7FgB-30" value="AuthService" style="rounded=0;whiteSpace=wrap;html=1;" parent="1" vertex="1">
          <mxGeometry x="400" y="620" width="140" height="30" as="geometry" />
        </mxCell>
        <mxCell id="I-Z8jvj-XsjcHyUn7FgB-32" style="edgeStyle=orthogonalEdgeStyle;rounded=0;orthogonalLoop=1;jettySize=auto;html=1;entryX=0.5;entryY=1;entryDx=0;entryDy=0;" parent="1" source="I-Z8jvj-XsjcHyUn7FgB-31" target="I-Z8jvj-XsjcHyUn7FgB-30" edge="1">
          <mxGeometry relative="1" as="geometry" />
        </mxCell>
        <mxCell id="I-Z8jvj-XsjcHyUn7FgB-31" value="AuthController" style="rounded=0;whiteSpace=wrap;html=1;" parent="1" vertex="1">
          <mxGeometry x="400" y="690" width="140" height="30" as="geometry" />
        </mxCell>
        <mxCell id="I-Z8jvj-XsjcHyUn7FgB-19" style="edgeStyle=orthogonalEdgeStyle;rounded=0;orthogonalLoop=1;jettySize=auto;html=1;exitX=0.75;exitY=0;exitDx=0;exitDy=0;entryX=0.584;entryY=1.001;entryDx=0;entryDy=0;entryPerimeter=0;" parent="1" source="I-Z8jvj-XsjcHyUn7FgB-2" target="I-Z8jvj-XsjcHyUn7FgB-22" edge="1">
          <mxGeometry relative="1" as="geometry">
            <Array as="points">
              <mxPoint x="483" y="910" />
              <mxPoint x="483" y="860" />
            </Array>
          </mxGeometry>
        </mxCell>
        <mxCell id="I-Z8jvj-XsjcHyUn7FgB-42" style="edgeStyle=orthogonalEdgeStyle;rounded=0;orthogonalLoop=1;jettySize=auto;html=1;" parent="1" source="I-Z8jvj-XsjcHyUn7FgB-37" target="I-Z8jvj-XsjcHyUn7FgB-38" edge="1">
          <mxGeometry relative="1" as="geometry" />
        </mxCell>
        <mxCell id="I-Z8jvj-XsjcHyUn7FgB-37" value="CartController" style="rounded=0;whiteSpace=wrap;html=1;" parent="1" vertex="1">
          <mxGeometry x="670" y="690" width="140" height="30" as="geometry" />
        </mxCell>
        <mxCell id="I-Z8jvj-XsjcHyUn7FgB-43" style="edgeStyle=orthogonalEdgeStyle;rounded=0;orthogonalLoop=1;jettySize=auto;html=1;entryX=0.5;entryY=1;entryDx=0;entryDy=0;" parent="1" source="I-Z8jvj-XsjcHyUn7FgB-38" target="I-Z8jvj-XsjcHyUn7FgB-39" edge="1">
          <mxGeometry relative="1" as="geometry">
            <Array as="points">
              <mxPoint x="710" y="570" />
              <mxPoint x="710" y="570" />
            </Array>
          </mxGeometry>
        </mxCell>
        <mxCell id="I-Z8jvj-XsjcHyUn7FgB-38" value="CartService" style="rounded=0;whiteSpace=wrap;html=1;" parent="1" vertex="1">
          <mxGeometry x="670" y="600" width="140" height="30" as="geometry" />
        </mxCell>
        <mxCell id="I-Z8jvj-XsjcHyUn7FgB-46" style="edgeStyle=orthogonalEdgeStyle;rounded=0;orthogonalLoop=1;jettySize=auto;html=1;exitX=0;exitY=0.5;exitDx=0;exitDy=0;entryX=1;entryY=0.5;entryDx=0;entryDy=0;" parent="1" source="I-Z8jvj-XsjcHyUn7FgB-39" target="I-Z8jvj-XsjcHyUn7FgB-26" edge="1">
          <mxGeometry relative="1" as="geometry">
            <Array as="points">
              <mxPoint x="590" y="535" />
              <mxPoint x="590" y="450" />
            </Array>
          </mxGeometry>
        </mxCell>
        <mxCell id="I-Z8jvj-XsjcHyUn7FgB-39" value="CartEntity" style="rounded=0;whiteSpace=wrap;html=1;" parent="1" vertex="1">
          <mxGeometry x="670" y="520" width="80" height="30" as="geometry" />
        </mxCell>
        <mxCell id="I-Z8jvj-XsjcHyUn7FgB-44" value="BookEntity" style="rounded=0;whiteSpace=wrap;html=1;" parent="1" vertex="1">
          <mxGeometry x="730" y="470" width="80" height="30" as="geometry" />
        </mxCell>
        <mxCell id="I-Z8jvj-XsjcHyUn7FgB-45" style="edgeStyle=orthogonalEdgeStyle;rounded=0;orthogonalLoop=1;jettySize=auto;html=1;exitX=0.75;exitY=0;exitDx=0;exitDy=0;entryX=0.574;entryY=1.039;entryDx=0;entryDy=0;entryPerimeter=0;" parent="1" source="I-Z8jvj-XsjcHyUn7FgB-38" target="I-Z8jvj-XsjcHyUn7FgB-44" edge="1">
          <mxGeometry relative="1" as="geometry" />
        </mxCell>
        <mxCell id="I-Z8jvj-XsjcHyUn7FgB-48" style="edgeStyle=orthogonalEdgeStyle;rounded=0;orthogonalLoop=1;jettySize=auto;html=1;entryX=1;entryY=0.5;entryDx=0;entryDy=0;" parent="1" source="I-Z8jvj-XsjcHyUn7FgB-44" target="I-Z8jvj-XsjcHyUn7FgB-26" edge="1">
          <mxGeometry relative="1" as="geometry">
            <Array as="points">
              <mxPoint x="590" y="485" />
              <mxPoint x="590" y="450" />
            </Array>
          </mxGeometry>
        </mxCell>
        <mxCell id="I-Z8jvj-XsjcHyUn7FgB-49" style="edgeStyle=orthogonalEdgeStyle;rounded=0;orthogonalLoop=1;jettySize=auto;html=1;exitX=0.75;exitY=0;exitDx=0;exitDy=0;entryX=0.5;entryY=1;entryDx=0;entryDy=0;" parent="1" source="I-Z8jvj-XsjcHyUn7FgB-2" target="I-Z8jvj-XsjcHyUn7FgB-23" edge="1">
          <mxGeometry relative="1" as="geometry" />
        </mxCell>
        <mxCell id="I-Z8jvj-XsjcHyUn7FgB-20" value="NestJS (built on&amp;nbsp;Node.js and follows the MVC architecture)" style="rounded=0;whiteSpace=wrap;html=1;" parent="1" vertex="1">
          <mxGeometry x="380" y="770" width="450" height="40" as="geometry" />
        </mxCell>
      </root>
    </mxGraphModel>
  </diagram>
</mxfile>
